<svg width="1152" height="480" viewBox="0 0 1152 480" fill="none" xmlns="http://www.w3.org/2000/svg">
<g clip-path="url(#clip0_975_34703)">
<rect width="1152" height="480" fill="url(#paint0_linear_975_34703)"/>
<path d="M390.104 412.07C393.087 409.546 397.456 409.546 400.439 412.07L507.403 502.583C513.092 507.397 509.688 516.69 502.235 516.69H288.308C280.855 516.69 277.451 507.397 283.14 502.583L390.104 412.07Z" fill="url(#paint1_linear_975_34703)" fill-opacity="0.5"/>
<path d="M923.142 377.705C926.204 374.886 930.917 374.886 933.979 377.705L1106.98 536.978C1112.34 541.914 1108.85 550.863 1101.56 550.863H755.557C748.27 550.863 744.777 541.914 750.139 536.978L923.142 377.705Z" fill="url(#paint2_linear_975_34703)"/>
<path d="M759.678 432.474C762.85 429.004 768.315 429.004 771.487 432.474L879.658 550.79C884.351 555.924 880.709 564.188 873.753 564.188H657.411C650.455 564.188 646.813 555.924 651.507 550.79L759.678 432.474Z" fill="url(#paint3_linear_975_34703)"/>
<path d="M391.04 242.504V246.216H408.672V242.504H391.04ZM389.152 233.736V247.848H393.056V237.384H406.688V247.816H410.816V233.736H389.152ZM402.624 222.792C405.6 225.736 409.28 229.864 410.816 232.584L414.08 230.216C412.384 227.496 408.544 223.528 405.6 220.776L402.624 222.792ZM388.096 231.592C388.096 230.888 390.368 229.768 390.368 229.768V229.64C393.696 226.952 397.344 223.048 400.192 218.952L396.32 217.288C394.112 221.128 390.624 225.032 389.504 226.056C388.448 227.08 387.712 227.688 386.816 227.88C387.264 228.904 387.904 230.824 388.096 231.592ZM388.096 231.592C389.824 230.984 392.224 230.952 410.656 230.056C410.496 229.224 410.336 227.656 410.304 226.6L390.624 227.24L388.032 228.584L388.096 231.592ZM432.064 223.816V225.576H438.176V223.816H432.064ZM432.064 226.312V228.072H438.176V226.312H432.064ZM427.584 240.968V243.272H443.392V240.968H427.584ZM431.136 221V223.016H438.816V221H431.136ZM434.24 230.664H435.84V232.04H434.24V230.664ZM432.032 228.936V233.768H438.176V228.936H432.032ZM427.968 237.768V239.912H444.192V234.6H425.92V236.744H440.64V237.768H427.968ZM426.88 237.768C426.496 239.592 425.984 241.736 425.44 243.272H429.024C429.472 241.8 429.984 239.688 430.4 237.768H426.88ZM442.176 240.968L442.144 241.352C441.792 243.464 441.344 244.584 440.832 244.936C440.48 245.16 440.096 245.192 439.456 245.192C438.624 245.192 436.512 245.16 434.592 245C435.136 245.768 435.552 246.952 435.616 247.784C437.632 247.88 439.584 247.88 440.64 247.848C441.92 247.816 442.816 247.656 443.616 247.016C444.48 246.312 445.056 244.904 445.536 242.312C445.696 241.864 445.76 240.968 445.76 240.968H442.176ZM417.408 220.808C419.008 221.8 421.024 223.272 421.92 224.36L424.256 221.48C423.232 220.424 421.184 219.08 419.584 218.248L417.408 220.808ZM416.736 229.32C418.336 230.184 420.448 231.624 421.376 232.584L423.584 229.672C422.56 228.68 420.448 227.432 418.848 226.664L416.736 229.32ZM417.44 245.576L420.864 247.528C422.144 244.392 423.456 240.648 424.512 237.224L421.472 235.272C420.256 239.016 418.624 243.08 417.44 245.576ZM428.64 225.448C429.216 226.568 429.792 228.04 430.016 228.968L431.616 228.232C431.456 227.368 430.816 225.96 430.208 224.904L428.64 225.448ZM428.896 229.768C429.312 230.856 429.664 232.264 429.76 233.192L431.36 232.488C431.264 231.592 430.848 230.248 430.4 229.224L428.896 229.768ZM424.192 229.8C424 231.08 423.712 232.392 423.136 233.416C423.584 233.672 424.352 234.216 424.704 234.568C425.312 233.48 425.76 231.816 426.016 230.248L424.192 229.8ZM424.16 224.616C424.16 224.328 425.344 223.816 425.344 223.816V223.784C426.528 222.472 427.776 220.584 428.512 218.856L426.4 218.12C425.92 219.848 424.832 221.768 424.448 222.216C424.128 222.696 423.84 223.048 423.424 223.112C423.68 223.528 424.064 224.296 424.16 224.616ZM424.16 224.616C424.64 224.456 425.44 224.296 428.576 224.104C428.608 223.624 428.768 222.824 428.928 222.28L425.344 222.44L424.096 223.048L424.16 224.616ZM424.288 228.936C424.288 228.616 425.696 228.104 425.696 228.104V228.04C427.552 226.344 429.408 223.976 430.688 221.768L428.704 220.872C427.648 223.176 425.728 225.64 425.088 226.248C424.512 226.888 424.096 227.304 423.584 227.4C423.84 227.816 424.224 228.616 424.288 228.936ZM424.288 228.936C424.864 228.712 425.76 228.488 430.528 227.88C430.336 227.464 430.176 226.664 430.08 226.152L425.28 226.696L424.16 227.304L424.288 228.936ZM426.4 230.216C426.72 231.432 426.944 232.968 426.976 233.96L428.704 233.384C428.672 232.424 428.416 230.952 428.064 229.8L426.4 230.216ZM433.184 218.728C433.6 219.528 434.08 220.616 434.24 221.32L436.832 220.68C436.608 220.04 436.096 218.952 435.68 218.216L433.184 218.728ZM443.84 225.48C444.416 226.6 444.992 228.072 445.216 229L446.848 228.328C446.624 227.432 445.984 225.992 445.376 224.904L443.84 225.48ZM444.032 229.768C444.544 231.048 444.992 232.744 445.088 233.832L446.72 233.096C446.56 232.072 446.08 230.44 445.536 229.192L444.032 229.768ZM439.36 229.672C439.168 230.952 438.88 232.296 438.304 233.288C438.784 233.576 439.552 234.088 439.904 234.472C440.48 233.352 440.96 231.688 441.216 230.152L439.36 229.672ZM439.36 224.648C439.36 224.328 440.512 223.816 440.512 223.816V223.784C441.728 222.472 442.976 220.584 443.68 218.888L441.6 218.12C441.088 219.88 440 221.768 439.648 222.216C439.296 222.728 439.008 223.048 438.624 223.112C438.88 223.528 439.232 224.328 439.36 224.648ZM439.36 224.648C439.808 224.456 440.608 224.328 443.776 224.104C443.776 223.656 443.904 222.856 444.064 222.28L440.512 222.44L439.264 223.08L439.36 224.648ZM439.488 228.968C439.488 228.616 440.864 228.104 440.864 228.104V228.04C442.752 226.344 444.576 224.008 445.856 221.768L443.872 220.904C442.816 223.208 440.896 225.672 440.288 226.248C439.712 226.888 439.296 227.304 438.752 227.4C439.008 227.816 439.392 228.616 439.488 228.968ZM439.488 228.968C440.032 228.712 440.96 228.52 445.696 227.88C445.536 227.464 445.344 226.696 445.28 226.152L440.448 226.696L439.328 227.304L439.488 228.968ZM441.472 230.28C441.824 231.56 442.08 233.256 442.08 234.312L443.84 233.736C443.84 232.712 443.52 231.112 443.136 229.832L441.472 230.28ZM449.056 234.088L450.08 237.928C453.376 237.064 457.632 235.944 461.568 234.888L461.088 231.208C456.768 232.296 452.16 233.448 449.056 234.088ZM449.376 223.912V227.56H461.056V223.912H449.376ZM453.536 217.832V243.432C453.536 243.88 453.376 244.04 452.928 244.04C452.512 244.04 451.136 244.04 449.888 244.008C450.368 245 450.88 246.6 450.976 247.624C453.312 247.624 454.848 247.528 455.968 246.92C457.056 246.312 457.408 245.352 457.408 243.464V217.832H453.536ZM461.568 220.264V224.104H478.976V220.264H461.568ZM469.696 221.64V242.824C469.696 243.4 469.472 243.592 468.832 243.592C468.128 243.624 465.76 243.624 463.744 243.496C464.352 244.584 465.088 246.504 465.28 247.688C468.288 247.688 470.432 247.624 471.904 246.92C473.376 246.28 473.856 245.096 473.856 242.888V221.64H469.696ZM483.2 221.16V225.16H508.864V221.16H483.2ZM481.408 241.8V245.672H510.688V241.8H481.408ZM493.664 223.336V243.336H498.048V223.336H493.664ZM512.704 234.056L513.568 237.736C516.416 236.872 520 235.752 523.36 234.664L522.816 231.24C519.136 232.328 515.264 233.416 512.704 234.056ZM513.184 223.912V227.432H522.912V223.912H513.184ZM516.448 217.8V243.368C516.448 243.752 516.32 243.88 515.968 243.88C515.584 243.88 514.528 243.88 513.472 243.848C513.92 244.936 514.368 246.6 514.496 247.624C516.48 247.624 517.856 247.496 518.848 246.856C519.84 246.216 520.128 245.16 520.128 243.368V217.8H516.448ZM528.704 217.832C527.648 220.68 525.664 223.944 522.496 226.376C523.2 226.888 524.256 228.168 524.736 228.968C528.448 225.928 530.72 222.184 532.224 218.408L528.704 217.832ZM529.408 220.36L527.68 223.336H535.648V220.36H529.408ZM524.896 225.64V238.6H528V228.712H537.856V238.6H541.088V225.64H524.896ZM522.656 237.576V240.648H543.008V237.576H522.656ZM531.072 234.984C530.688 240.52 529.792 243.464 521.6 244.904C522.272 245.64 523.168 246.984 523.456 247.88C532.8 245.928 534.272 241.896 534.752 234.984H531.072ZM534.688 220.36V221C534.144 222.376 532.96 224.648 531.872 226.024C532.576 226.408 533.696 227.112 534.304 227.592C535.584 226.056 537.248 223.624 538.208 221.704L535.968 220.232L535.424 220.36H534.688ZM532.192 227.88C531.2 230.024 529.472 232.104 527.52 233.448C528.192 233.832 529.376 234.696 529.92 235.176C531.84 233.64 533.824 231.144 534.976 228.648L532.192 227.88ZM531.584 231.464C533.376 232.456 535.68 233.96 536.768 235.016L538.464 232.936C537.312 231.944 535.008 230.536 533.248 229.64L531.584 231.464ZM533.952 242.28C536.192 244.04 539.392 246.536 540.896 248.04L543.328 245.64C541.696 244.2 538.432 241.832 536.224 240.2L533.952 242.28ZM546.272 220.552V226.632H550.048V223.784H569.824V225.864H573.76V220.552H546.272ZM555.552 226.472V229.864H574.24V226.472H555.552ZM558.272 237.672V240.776H570.688V237.672H558.272ZM558.272 243.304V246.568H570.688V243.304H558.272ZM556.512 232.072V247.88H560.16V235.304H568.96V247.72H572.8V232.072H556.512ZM562.56 228.104C562.368 229.864 561.824 232.264 561.344 233.864L564.704 234.792C565.312 233.352 566.08 231.176 566.88 229.032L562.56 228.104ZM552.192 224.616C550.496 228.392 547.648 232.04 544.64 234.344C545.312 235.176 546.464 237.096 546.848 237.928C550.304 235.048 553.664 230.408 555.744 225.8L552.192 224.616ZM549.28 231.304V247.88H552.928V228.04L552.672 227.912L549.28 231.304ZM557.056 218.632C557.632 220.04 558.368 221.896 558.656 223.08L562.944 221.768C562.592 220.648 561.76 218.856 561.152 217.544L557.056 218.632ZM589.28 219.176V222.6H606.624V219.176H589.28ZM590.048 235.784V239.176H605.664V235.784H590.048ZM588.576 243.624V247.112H606.976V243.624H588.576ZM595.84 237.384V245.736H599.712V237.384H595.84ZM592.16 223.112C591.424 224.648 590.048 226.984 588.768 228.936C590.432 231.144 591.872 233.544 592.544 235.208L595.616 233.992C594.976 232.648 593.632 230.6 592.288 228.872C593.344 227.336 594.464 225.544 595.392 223.848L592.16 223.112ZM597.504 223.144C596.768 224.68 595.456 226.984 594.112 228.872C595.84 231.048 597.312 233.416 597.984 235.08L601.024 233.8C600.384 232.488 599.008 230.504 597.664 228.84C598.688 227.336 599.808 225.544 600.768 223.912L597.504 223.144ZM602.976 223.112C602.208 224.648 600.8 227.016 599.424 228.936C601.248 231.112 602.912 233.544 603.68 235.208L606.688 233.864C605.952 232.52 604.48 230.568 603.072 228.872C604.096 227.336 605.248 225.576 606.24 223.88L602.976 223.112ZM584.864 230.984C585.632 233.192 586.4 236.072 586.656 237.8L589.6 236.776C589.28 235.08 588.416 232.264 587.616 230.152L584.864 230.984ZM581.824 239.464C582.176 241.544 582.496 244.328 582.528 246.12L585.472 245.544C585.376 243.72 584.992 241.032 584.608 238.92L581.824 239.464ZM578.176 238.952C577.984 241.672 577.6 244.648 576.864 246.568C577.632 246.824 579.136 247.304 579.872 247.656C580.544 245.64 581.088 242.44 581.312 239.464L578.176 238.952ZM577.888 230.536C577.888 229.896 579.904 228.808 579.904 228.808V228.744C581.984 226.248 584.224 222.568 585.728 219.112L582.4 217.736C581.28 221.128 579.232 224.68 578.56 225.608C577.92 226.568 577.376 227.176 576.736 227.336C577.152 228.232 577.696 229.864 577.888 230.536ZM577.888 230.536C578.528 230.248 579.584 229.992 584.544 229.512C584.576 228.776 584.704 227.432 584.928 226.504L579.328 226.92L577.76 227.912L577.888 230.536ZM578.112 237.96C578.112 237.32 580.224 236.232 580.224 236.232V236.136C583.36 233 586.528 228.584 588.832 224.36L585.696 222.44C583.744 226.792 580.48 231.336 579.456 232.488C578.432 233.672 577.76 234.408 576.928 234.6C577.376 235.56 577.92 237.256 578.112 237.96ZM578.112 237.96C578.88 237.576 580.064 237.288 587.008 236.296C586.976 235.56 587.072 234.216 587.232 233.32L579.52 234.248L577.952 235.272L578.112 237.96ZM585.184 238.76C585.728 240.328 586.304 242.408 586.528 243.752L589.248 242.792C588.992 241.48 588.352 239.464 587.776 237.896L585.184 238.76ZM612.288 224.296V227.112H621.024V224.296H612.288ZM612.288 229.032V231.848H621.12V229.032H612.288ZM615.36 221.512V235.976H618.272V221.512H615.36ZM616.128 238.152C616.64 239.464 617.216 241.192 617.44 242.312L618.88 241.768C618.656 240.712 618.016 239.016 617.504 237.704L616.128 238.152ZM614.24 238.504C614.624 240.168 614.976 242.312 615.104 243.752L616.704 243.432C616.544 242.024 616.16 239.88 615.776 238.248L614.24 238.504ZM612.32 238.728C612.48 240.616 612.544 243.016 612.48 244.648L614.176 244.456C614.176 242.856 614.08 240.456 613.888 238.568L612.32 238.728ZM610.048 238.056C609.856 240.2 609.376 243.144 608.768 245L610.816 245.736C611.36 243.912 611.776 240.872 612 238.728L610.048 238.056ZM618.816 233.832V234.344C618.688 241.576 618.496 244.072 618.112 244.648C617.92 244.968 617.696 245.032 617.344 245.032C616.96 245.032 616.288 245.032 615.488 244.936C615.904 245.704 616.192 246.888 616.256 247.752C617.28 247.784 618.272 247.784 618.912 247.656C619.648 247.528 620.192 247.304 620.704 246.6C621.376 245.64 621.6 242.76 621.792 235.048C621.824 234.664 621.824 233.832 621.824 233.832H618.816ZM621.536 219.08H610.4V236.968H620.352V233.832H613.376V222.184H621.536V219.08ZM625.12 231.912H626.912V234.92H625.12V231.912ZM622.656 229.48V237.352H629.568V229.48H622.656ZM633.088 231.912H635.072V234.92H633.088V231.912ZM630.56 229.48V237.352H637.728V229.48H630.56ZM624.8 237.928C624.192 241.096 622.88 243.976 620.928 245.8C621.664 246.28 622.912 247.368 623.456 247.912C625.6 245.736 627.2 242.28 628 238.504L624.8 237.928ZM625.344 224.904V227.816H634.816V224.904H625.344ZM624.704 242.792C626.016 243.656 627.68 244.936 628.448 245.832L630.368 243.304C629.568 242.472 627.84 241.256 626.528 240.52L624.704 242.792ZM632.64 237.832C632.16 241.032 631.072 243.976 629.216 245.8C630.016 246.312 631.424 247.368 632 247.944C633.984 245.704 635.392 242.216 636.032 238.408L632.64 237.832ZM632.032 243.848C633.6 244.936 635.68 246.504 636.64 247.56L638.88 244.936C637.824 243.944 635.712 242.472 634.144 241.48L632.032 243.848ZM629.216 217.416C627.52 220.264 624.32 223.272 620.8 225.128C621.504 225.672 622.624 226.888 623.136 227.56C626.944 225.416 630.496 222.28 632.672 218.6L629.216 217.416ZM630.848 218.44L628.256 220.04C630.56 222.664 634.368 225.672 637.792 227.432C638.016 226.472 638.656 224.808 639.2 223.912C636.192 222.76 632.672 220.456 630.848 218.44ZM646.208 229.576V233.32H663.52V229.576H646.208ZM662.272 229.576V230.28C661.984 239.176 661.632 242.76 660.864 243.592C660.512 243.944 660.16 244.04 659.584 244.04C658.784 244.04 657.12 244.008 655.328 243.848C656.032 244.936 656.544 246.6 656.608 247.72C658.496 247.784 660.352 247.816 661.472 247.656C662.688 247.464 663.584 247.176 664.384 246.088C665.504 244.776 665.888 240.968 666.24 231.24C666.272 230.76 666.304 229.576 666.304 229.576H662.272ZM651.936 230.664C651.424 236.36 650.656 241.768 642.08 244.584C642.976 245.416 644.096 247.048 644.576 248.104C654.112 244.552 655.488 237.864 656.096 230.664H651.936ZM648.544 218.92C647.072 223.752 644.192 228.072 640.576 230.632C641.472 231.304 643.104 232.744 643.808 233.512C647.488 230.44 650.752 225.48 652.576 219.912L648.544 218.92ZM654.24 218.344V221.896H661.568V218.344H654.24ZM657.888 218.344V220.328H658.72C660.448 225.288 663.904 230.408 668.672 233.416C669.312 232.36 670.592 230.696 671.424 229.864C666.912 227.56 663.648 223.016 662.144 218.344H657.888ZM673.536 238.824V242.088H702.464V238.824H673.536ZM676.672 233.256V236.232H695.84V233.256H676.672ZM685.888 237.448V244.2C685.888 244.648 685.664 244.776 685.056 244.808C684.512 244.84 681.984 244.84 680.128 244.744C680.64 245.64 681.216 246.92 681.44 247.912C684.256 247.912 686.368 247.912 687.872 247.496C689.408 247.016 689.952 246.216 689.952 244.36V237.448H685.888ZM695.008 233.224V233.928C693.184 235.112 689.28 236.616 685.888 237.416C686.368 237.928 687.264 238.92 687.68 239.528C691.904 238.536 696.064 236.968 699.328 235.208L696.896 233.064L696.064 233.224H695.008ZM681.536 227.528H694.432V229.32H681.536V227.528ZM677.696 224.904V231.944H698.496V224.904H677.696ZM673.984 220.2V223.432H701.92V220.2H673.984ZM685.152 218.248C685.664 219.56 686.144 221.288 686.304 222.376L690.432 221.608C690.272 220.488 689.696 218.824 689.088 217.576L685.152 218.248ZM707.168 219.816V223.624H732.736V219.816H707.168ZM705.44 233.384V237.256H734.592V233.384H705.44ZM709.088 225.672C710.112 227.816 711.136 230.632 711.456 232.36L715.168 231.176C714.816 229.416 713.696 226.696 712.576 224.648L709.088 225.672ZM727.328 224.552C726.72 226.664 725.536 229.48 724.544 231.336L727.904 232.328C728.96 230.664 730.272 228.04 731.424 225.608L727.328 224.552ZM717.952 221.416V247.848H721.952V221.416H717.952ZM743.04 242.504V246.216H760.672V242.504H743.04ZM741.152 233.736V247.848H745.056V237.384H758.688V247.816H762.816V233.736H741.152ZM754.624 222.792C757.6 225.736 761.28 229.864 762.816 232.584L766.08 230.216C764.384 227.496 760.544 223.528 757.6 220.776L754.624 222.792ZM740.096 231.592C740.096 230.888 742.368 229.768 742.368 229.768V229.64C745.696 226.952 749.344 223.048 752.192 218.952L748.32 217.288C746.112 221.128 742.624 225.032 741.504 226.056C740.448 227.08 739.712 227.688 738.816 227.88C739.264 228.904 739.904 230.824 740.096 231.592ZM740.096 231.592C741.824 230.984 744.224 230.952 762.656 230.056C762.496 229.224 762.336 227.656 762.304 226.6L742.624 227.24L740.032 228.584L740.096 231.592Z" fill="black" fill-opacity="0.6"/>
<path fill-rule="evenodd" clip-rule="evenodd" d="M870.842 77.9405C871.232 76.3768 871.439 74.7407 871.439 73.0563C871.439 61.9374 862.425 52.9238 851.306 52.9238C842.905 52.9238 835.706 58.0695 832.689 65.3809C830.588 64.6378 828.327 64.2334 825.972 64.2334C814.853 64.2334 805.84 73.247 805.84 84.3659C805.84 95.4847 814.853 104.498 825.972 104.498C826.643 104.498 827.306 104.466 827.96 104.401C828.495 104.466 829.039 104.5 829.591 104.5H868.951C876.322 104.5 882.297 98.5247 882.297 91.1538C882.297 84.4249 877.317 78.8591 870.842 77.9405Z" fill="url(#paint4_linear_975_34703)"/>
<path fill-rule="evenodd" clip-rule="evenodd" d="M271.22 101.211C270.976 100.23 270.846 99.2031 270.846 98.146C270.846 91.1704 276.501 85.5156 283.476 85.5156C288.746 85.5156 293.262 88.7434 295.156 93.3298C296.474 92.8636 297.892 92.6098 299.37 92.6098C306.345 92.6098 312 98.2647 312 105.24C312 112.216 306.345 117.871 299.37 117.871C298.952 117.871 298.539 117.85 298.132 117.811C297.793 117.852 297.447 117.874 297.097 117.874H272.404C267.78 117.874 264.031 114.125 264.031 109.501C264.031 105.279 267.157 101.786 271.22 101.211Z" fill="url(#paint5_linear_975_34703)" fill-opacity="0.7"/>
<path fill-rule="evenodd" clip-rule="evenodd" d="M179.002 141.479C178.832 140.8 178.743 140.09 178.743 139.359C178.743 134.535 182.653 130.625 187.476 130.625C191.12 130.625 194.243 132.857 195.552 136.029C196.463 135.706 197.444 135.53 198.466 135.53C203.289 135.53 207.199 139.44 207.199 144.264C207.199 149.087 203.289 152.997 198.466 152.997C198.178 152.997 197.894 152.983 197.614 152.956C197.378 152.985 197.138 153 196.894 153H179.82C176.623 153 174.031 150.408 174.031 147.211C174.031 144.291 176.192 141.876 179.002 141.479Z" fill="url(#paint6_linear_975_34703)" fill-opacity="0.7"/>
<path fill-rule="evenodd" clip-rule="evenodd" d="M958.981 128.021C970.498 128.021 979.849 137.294 979.973 148.782C991.097 150.249 999.682 159.768 999.682 171.293C999.682 183.834 989.516 194 976.975 194C976.666 194 976.358 193.994 976.052 193.982C975.79 193.994 975.526 194 975.261 194H912.709C903.481 194 896 186.519 896 177.291C896 169.26 901.666 162.553 909.218 160.947C908.979 159.72 908.853 158.452 908.853 157.154C908.853 146.27 917.677 137.446 928.561 137.446C932.666 137.446 936.478 138.701 939.634 140.849C942.82 133.31 950.283 128.021 958.981 128.021Z" fill="url(#paint7_linear_975_34703)"/>
<path fill-rule="evenodd" clip-rule="evenodd" d="M306.703 188.425C307.239 186.547 307.526 184.564 307.526 182.513C307.526 170.637 297.899 161.01 286.023 161.01C279.192 161.01 273.106 164.194 269.167 169.16C266.27 167.541 262.931 166.619 259.377 166.619C248.276 166.619 239.276 175.619 239.276 186.72C239.276 187.201 239.293 187.677 239.326 188.149C231.994 188.607 226.188 194.698 226.188 202.146C226.188 209.891 232.467 216.17 240.212 216.17H303.788C311.533 216.17 317.812 209.891 317.812 202.146C317.812 195.4 313.049 189.767 306.703 188.425Z" fill="url(#paint8_linear_975_34703)" fill-opacity="0.8"/>
<path d="M1102.12 314.881C1105.17 312.112 1109.83 312.112 1112.88 314.881L1294.38 479.629C1299.79 484.546 1296.32 493.553 1289 493.553H925.999C918.684 493.553 915.206 484.546 920.622 479.629L1102.12 314.881Z" fill="url(#paint9_linear_975_34703)"/>
<path d="M238.268 331.03C235.131 328.269 230.398 328.386 227.402 331.301L153.116 403.579C150.297 406.322 145.902 406.609 142.75 404.255L121.94 388.712C118.919 386.456 114.733 386.615 111.893 389.094L-49.7308 530.134C-55.2521 534.952 -51.9282 544.041 -44.6012 544.161L417.536 551.695H467.702C475.077 551.695 478.524 542.564 472.989 537.691L238.268 331.03Z" fill="url(#paint10_linear_975_34703)"/>
<path d="M145.658 503.839L-94.8224 314.928C-95.4747 314.415 -96.2802 314.137 -97.1098 314.137C-99.1547 314.137 -100.812 315.794 -100.812 317.839V510.13C-100.812 514.549 -97.2308 518.13 -92.8125 518.13H140.716C148.314 518.13 151.633 508.533 145.658 503.839Z" fill="url(#paint11_linear_975_34703)"/>
<circle cx="339.375" cy="104.5" r="40.5" fill="#F8E064"/>
<path d="M373.773 103.622C383.693 103.622 391.309 105.382 396.621 108.902C401.933 112.358 404.589 118.054 404.589 125.99C404.589 133.99 401.901 139.782 396.525 143.366C391.149 146.886 383.469 148.646 373.485 148.646H368.781V170.918H353.805V105.35C357.069 104.71 360.525 104.262 364.173 104.006C367.821 103.75 371.021 103.622 373.773 103.622ZM374.733 116.39C373.645 116.39 372.557 116.422 371.469 116.486C370.445 116.55 369.549 116.614 368.781 116.678V135.878H373.485C378.669 135.878 382.573 135.174 385.197 133.766C387.821 132.358 389.133 129.734 389.133 125.894C389.133 124.038 388.781 122.502 388.077 121.286C387.437 120.07 386.477 119.11 385.197 118.406C383.981 117.638 382.477 117.126 380.685 116.87C378.893 116.55 376.909 116.39 374.733 116.39ZM432.047 160.934C433.455 160.934 434.799 160.902 436.079 160.838C437.359 160.774 438.383 160.678 439.151 160.55V149.702C438.575 149.574 437.711 149.446 436.559 149.318C435.407 149.19 434.351 149.126 433.391 149.126C432.047 149.126 430.767 149.222 429.551 149.414C428.399 149.542 427.375 149.83 426.479 150.278C425.583 150.726 424.879 151.334 424.367 152.102C423.855 152.87 423.599 153.83 423.599 154.982C423.599 157.222 424.335 158.79 425.807 159.686C427.343 160.518 429.423 160.934 432.047 160.934ZM430.895 119.078C435.119 119.078 438.639 119.558 441.455 120.518C444.271 121.478 446.511 122.854 448.175 124.646C449.903 126.438 451.119 128.614 451.823 131.174C452.527 133.734 452.879 136.582 452.879 139.718V169.478C450.831 169.926 447.983 170.438 444.335 171.014C440.687 171.654 436.271 171.974 431.087 171.974C427.823 171.974 424.847 171.686 422.159 171.11C419.535 170.534 417.263 169.606 415.343 168.326C413.423 166.982 411.951 165.254 410.927 163.142C409.903 161.03 409.391 158.438 409.391 155.366C409.391 152.422 409.967 149.926 411.119 147.878C412.335 145.83 413.935 144.198 415.919 142.982C417.903 141.766 420.175 140.902 422.735 140.39C425.295 139.814 427.951 139.526 430.703 139.526C432.559 139.526 434.191 139.622 435.599 139.814C437.071 139.942 438.255 140.134 439.151 140.39V139.046C439.151 136.614 438.415 134.662 436.943 133.19C435.471 131.718 432.911 130.982 429.263 130.982C426.831 130.982 424.431 131.174 422.063 131.558C419.695 131.878 417.647 132.358 415.919 132.998L414.095 121.478C414.927 121.222 415.951 120.966 417.167 120.71C418.447 120.39 419.823 120.134 421.295 119.942C422.767 119.686 424.303 119.494 425.903 119.366C427.567 119.174 429.231 119.078 430.895 119.078ZM465.334 107.846L479.638 105.542V120.422H496.822V132.326H479.638V150.086C479.638 153.094 480.15 155.494 481.174 157.286C482.262 159.078 484.406 159.974 487.606 159.974C489.142 159.974 490.71 159.846 492.31 159.59C493.974 159.27 495.478 158.854 496.822 158.342L498.838 169.478C497.11 170.182 495.19 170.79 493.078 171.302C490.966 171.814 488.374 172.07 485.302 172.07C481.398 172.07 478.166 171.558 475.606 170.534C473.046 169.446 470.998 167.974 469.462 166.118C467.926 164.198 466.838 161.894 466.198 159.206C465.622 156.518 465.334 153.542 465.334 150.278V107.846ZM508.47 170.918V98.726L522.774 96.422V120.614C523.734 120.294 524.95 120.006 526.422 119.75C527.958 119.43 529.43 119.27 530.838 119.27C534.934 119.27 538.326 119.846 541.014 120.998C543.766 122.086 545.942 123.654 547.542 125.702C549.206 127.75 550.358 130.182 550.998 132.998C551.702 135.814 552.054 138.95 552.054 142.406V170.918H537.75V144.134C537.75 139.526 537.142 136.262 535.926 134.342C534.774 132.422 532.598 131.462 529.398 131.462C528.118 131.462 526.902 131.59 525.75 131.846C524.662 132.038 523.67 132.262 522.774 132.518V170.918H508.47ZM565.961 170.918V104.39H610.505V116.966H580.937V130.886H607.241V143.462H580.937V170.918H565.961ZM634.43 170.918H620.126V120.422H634.43V170.918ZM635.774 105.83C635.774 108.454 634.91 110.534 633.182 112.07C631.518 113.542 629.534 114.278 627.23 114.278C624.926 114.278 622.91 113.542 621.182 112.07C619.518 110.534 618.686 108.454 618.686 105.83C618.686 103.206 619.518 101.158 621.182 99.686C622.91 98.15 624.926 97.382 627.23 97.382C629.534 97.382 631.518 98.15 633.182 99.686C634.91 101.158 635.774 103.206 635.774 105.83ZM647.876 122.15C650.308 121.446 653.444 120.806 657.284 120.23C661.124 119.59 665.156 119.27 669.38 119.27C673.668 119.27 677.22 119.846 680.036 120.998C682.916 122.086 685.188 123.654 686.852 125.702C688.516 127.75 689.7 130.182 690.404 132.998C691.108 135.814 691.46 138.95 691.46 142.406V170.918H677.156V144.134C677.156 139.526 676.548 136.262 675.332 134.342C674.116 132.422 671.844 131.462 668.516 131.462C667.492 131.462 666.404 131.526 665.252 131.654C664.1 131.718 663.076 131.814 662.18 131.942V170.918H647.876V122.15ZM716.6 145.286C716.6 149.702 717.592 153.254 719.576 155.942C721.56 158.63 724.504 159.974 728.408 159.974C729.688 159.974 730.872 159.942 731.96 159.878C733.048 159.75 733.944 159.622 734.648 159.494V133.478C733.752 132.902 732.568 132.422 731.096 132.038C729.688 131.654 728.248 131.462 726.776 131.462C719.992 131.462 716.6 136.07 716.6 145.286ZM748.952 169.286C747.672 169.67 746.2 170.054 744.536 170.438C742.872 170.758 741.112 171.046 739.256 171.302C737.464 171.558 735.608 171.75 733.688 171.878C731.832 172.07 730.04 172.166 728.312 172.166C724.152 172.166 720.44 171.558 717.176 170.342C713.912 169.126 711.16 167.398 708.92 165.158C706.68 162.854 704.952 160.102 703.736 156.902C702.584 153.638 702.008 149.99 702.008 145.958C702.008 141.862 702.52 138.182 703.544 134.918C704.568 131.59 706.04 128.774 707.96 126.47C709.88 124.166 712.216 122.406 714.968 121.19C717.784 119.974 720.984 119.366 724.568 119.366C726.552 119.366 728.312 119.558 729.848 119.942C731.448 120.326 733.048 120.87 734.648 121.574V98.726L748.952 96.422V169.286ZM759.945 146.054C759.945 141.574 760.617 137.67 761.961 134.342C763.369 130.95 765.193 128.134 767.433 125.894C769.673 123.654 772.233 121.958 775.113 120.806C778.057 119.654 781.065 119.078 784.137 119.078C791.305 119.078 796.969 121.286 801.129 125.702C805.289 130.054 807.369 136.486 807.369 144.998C807.369 145.83 807.337 146.758 807.273 147.782C807.209 148.742 807.145 149.606 807.081 150.374H774.633C774.953 153.318 776.329 155.654 778.761 157.382C781.193 159.11 784.457 159.974 788.553 159.974C791.177 159.974 793.737 159.75 796.233 159.302C798.793 158.79 800.873 158.182 802.473 157.478L804.393 169.094C803.625 169.478 802.601 169.862 801.321 170.246C800.041 170.63 798.601 170.95 797.001 171.206C795.465 171.526 793.801 171.782 792.009 171.974C790.217 172.166 788.425 172.262 786.633 172.262C782.089 172.262 778.121 171.59 774.729 170.246C771.401 168.902 768.617 167.078 766.377 164.774C764.201 162.406 762.569 159.622 761.481 156.422C760.457 153.222 759.945 149.766 759.945 146.054ZM793.545 140.582C793.481 139.366 793.257 138.182 792.873 137.03C792.553 135.878 792.009 134.854 791.241 133.958C790.537 133.062 789.609 132.326 788.457 131.75C787.369 131.174 785.993 130.886 784.329 130.886C782.729 130.886 781.353 131.174 780.201 131.75C779.049 132.262 778.089 132.966 777.321 133.862C776.553 134.758 775.945 135.814 775.497 137.03C775.113 138.182 774.825 139.366 774.633 140.582H793.545ZM848.84 133.094C847.56 132.774 846.056 132.454 844.328 132.134C842.6 131.75 840.744 131.558 838.76 131.558C837.864 131.558 836.776 131.654 835.496 131.846C834.28 131.974 833.352 132.134 832.712 132.326V170.918H818.408V123.11C820.968 122.214 823.976 121.382 827.432 120.614C830.952 119.782 834.856 119.366 839.144 119.366C839.912 119.366 840.84 119.43 841.928 119.558C843.016 119.622 844.104 119.75 845.192 119.942C846.28 120.07 847.368 120.262 848.456 120.518C849.544 120.71 850.472 120.966 851.24 121.286L848.84 133.094Z" fill="black" fill-opacity="0.8"/>
</g>
<defs>
<linearGradient id="paint0_linear_975_34703" x1="576" y1="96.5" x2="576" y2="656.5" gradientUnits="userSpaceOnUse">
<stop stop-color="#DDF5FF"/>
<stop offset="0.671875" stop-color="#FAFDFF"/>
</linearGradient>
<linearGradient id="paint1_linear_975_34703" x1="395.271" y1="407.697" x2="395.271" y2="553.02" gradientUnits="userSpaceOnUse">
<stop stop-color="#93D2BC" stop-opacity="0.3"/>
<stop offset="0.651042" stop-color="#93D2BC" stop-opacity="0.7"/>
</linearGradient>
<linearGradient id="paint2_linear_975_34703" x1="928.561" y1="372.717" x2="981.44" y2="484.45" gradientUnits="userSpaceOnUse">
<stop stop-color="#93D2BC" stop-opacity="0"/>
<stop offset="1" stop-color="#93D2BC"/>
</linearGradient>
<linearGradient id="paint3_linear_975_34703" x1="765.582" y1="426.016" x2="765.582" y2="610.245" gradientUnits="userSpaceOnUse">
<stop stop-color="#69BC9F" stop-opacity="0"/>
<stop offset="0.651042" stop-color="#93D2BC" stop-opacity="0.7"/>
</linearGradient>
<linearGradient id="paint4_linear_975_34703" x1="844.068" y1="52.9238" x2="844.068" y2="104.5" gradientUnits="userSpaceOnUse">
<stop stop-color="white" stop-opacity="0.7"/>
<stop offset="0.0001" stop-color="white" stop-opacity="0.7"/>
<stop offset="0.739583" stop-color="white" stop-opacity="0.4"/>
<stop offset="1" stop-color="white" stop-opacity="0"/>
</linearGradient>
<linearGradient id="paint5_linear_975_34703" x1="288.016" y1="85.5156" x2="288.016" y2="117.874" gradientUnits="userSpaceOnUse">
<stop stop-color="white" stop-opacity="0.5"/>
<stop offset="0.0001" stop-color="white" stop-opacity="0.7"/>
<stop offset="0.78125" stop-color="white" stop-opacity="0.6"/>
<stop offset="1" stop-color="white" stop-opacity="0"/>
</linearGradient>
<linearGradient id="paint6_linear_975_34703" x1="190.615" y1="130.625" x2="190.615" y2="153" gradientUnits="userSpaceOnUse">
<stop stop-color="white" stop-opacity="0.5"/>
<stop offset="0.0001" stop-color="white" stop-opacity="0.7"/>
<stop offset="0.484375" stop-color="white" stop-opacity="0.6"/>
<stop offset="1" stop-color="white" stop-opacity="0"/>
</linearGradient>
<linearGradient id="paint7_linear_975_34703" x1="947.841" y1="128.021" x2="947.841" y2="194" gradientUnits="userSpaceOnUse">
<stop stop-color="white"/>
<stop offset="0.770833" stop-color="white" stop-opacity="0.65"/>
<stop offset="1" stop-color="white" stop-opacity="0.1"/>
</linearGradient>
<linearGradient id="paint8_linear_975_34703" x1="272" y1="161.01" x2="272" y2="216.17" gradientUnits="userSpaceOnUse">
<stop stop-color="white"/>
<stop offset="0.557292" stop-color="white" stop-opacity="0.817708"/>
<stop offset="1" stop-color="white" stop-opacity="0"/>
</linearGradient>
<linearGradient id="paint9_linear_975_34703" x1="1042.76" y1="297.593" x2="1083.1" y2="566.499" gradientUnits="userSpaceOnUse">
<stop stop-color="#93D2BC" stop-opacity="0"/>
<stop offset="0.317708" stop-color="#93D2BC" stop-opacity="0.39"/>
<stop offset="0.729167" stop-color="#93D2BC"/>
</linearGradient>
<linearGradient id="paint10_linear_975_34703" x1="252.614" y1="278.579" x2="192.103" y2="538.893" gradientUnits="userSpaceOnUse">
<stop stop-color="#93D2BC" stop-opacity="0.06"/>
<stop offset="0.401042" stop-color="#93D2BC" stop-opacity="0.2"/>
<stop offset="0.739583" stop-color="#93D2BC" stop-opacity="0.8"/>
</linearGradient>
<linearGradient id="paint11_linear_975_34703" x1="-5.17029" y1="303.795" x2="43.0419" y2="522.341" gradientUnits="userSpaceOnUse">
<stop stop-color="#93D2BC" stop-opacity="0"/>
<stop offset="0.385417" stop-color="#93D2BC" stop-opacity="0.3"/>
<stop offset="0.729167" stop-color="#93D2BC" stop-opacity="0.6"/>
</linearGradient>
<clipPath id="clip0_975_34703">
<rect width="1152" height="480" fill="white"/>
</clipPath>
</defs>
</svg>
