<svg width="200" height="36" viewBox="0 0 200 36" fill="none" xmlns="http://www.w3.org/2000/svg">
<path fill-rule="evenodd" clip-rule="evenodd" d="M18.2768 3.09119C20.3747 3.09119 22.1651 4.40769 22.867 6.25962H13.6865C14.3884 4.40769 16.1788 3.09119 18.2768 3.09119ZM4.63679 6.25962H10.4678C11.2618 2.67829 14.4565 0 18.2768 0C22.097 0 25.2917 2.67829 26.0857 6.25962H31.9165C34.4774 6.25962 36.5533 8.33558 36.5533 10.8964V26.4296C36.5533 28.9905 34.4774 31.0664 31.9165 31.0664H30.3708L30.371 31.1051C30.371 33.4738 28.4508 35.3941 26.082 35.3941C23.7132 35.3941 21.793 33.4738 21.793 31.1051L21.7931 31.0664H14.8376L14.8378 31.1051C14.8378 33.4738 12.9175 35.3941 10.5488 35.3941C8.18 35.3941 6.25973 33.4738 6.25973 31.1051L6.2599 31.0664H4.63679C2.07596 31.0664 0 28.9905 0 26.4296V10.8964C0 8.33558 2.07596 6.25962 4.63679 6.25962ZM19.3389 12.1271C18.903 11.3068 17.7276 11.3068 17.2917 12.1271L16.0628 14.4395C15.8952 14.7548 15.5916 14.9754 15.2398 15.0372L12.6607 15.4905C11.7454 15.6513 11.382 16.77 12.0281 17.438L13.8473 19.319C14.0957 19.5759 14.2118 19.933 14.1619 20.2868L13.7963 22.8779C13.6665 23.7979 14.6175 24.4891 15.4525 24.0816L17.8069 22.9326C18.1278 22.776 18.5029 22.776 18.8237 22.9326L21.1781 24.0816C22.0131 24.4891 22.9642 23.7979 22.8344 22.8779L22.4688 20.2868C22.4189 19.933 22.5349 19.5759 22.7834 19.319L24.6025 17.438C25.2486 16.77 24.8853 15.6513 23.9699 15.4905L21.3908 15.0372C21.039 14.9754 20.7354 14.7548 20.5678 14.4395L19.3389 12.1271Z" fill="#088F6A"/>
<path d="M56.8256 8.18206C59.9399 8.18206 62.331 8.73461 63.9987 9.83971C65.6664 10.9247 66.5002 12.713 66.5002 15.2045C66.5002 17.7161 65.6563 19.5345 63.9685 20.6596C62.2807 21.7647 59.8696 22.3173 56.7352 22.3173H55.2583V29.3096H50.5566V8.72456C51.5814 8.52364 52.6664 8.38299 53.8117 8.30262C54.9569 8.22224 55.9616 8.18206 56.8256 8.18206ZM57.127 12.1906C56.7854 12.1906 56.4438 12.2006 56.1022 12.2207C55.7807 12.2408 55.4994 12.2609 55.2583 12.281V18.3088H56.7352C58.3627 18.3088 59.5883 18.0878 60.4121 17.6457C61.2359 17.2037 61.6478 16.3799 61.6478 15.1743C61.6478 14.5916 61.5373 14.1094 61.3163 13.7277C61.1154 13.3459 60.814 13.0445 60.4121 12.8235C60.0304 12.5824 59.5582 12.4216 58.9956 12.3413C58.433 12.2408 57.8101 12.1906 57.127 12.1906ZM74.8193 26.1751C75.2614 26.1751 75.6833 26.1651 76.0852 26.145C76.487 26.1249 76.8085 26.0947 77.0496 26.0545V22.6488C76.8688 22.6086 76.5975 22.5685 76.2359 22.5283C75.8742 22.4881 75.5427 22.468 75.2413 22.468C74.8193 22.468 74.4175 22.4981 74.0357 22.5584C73.674 22.5986 73.3525 22.689 73.0712 22.8297C72.79 22.9703 72.5689 23.1612 72.4082 23.4023C72.2474 23.6434 72.1671 23.9448 72.1671 24.3065C72.1671 25.0097 72.3981 25.502 72.8603 25.7833C73.3425 26.0445 73.9955 26.1751 74.8193 26.1751ZM74.4576 13.0345C75.7838 13.0345 76.8889 13.1852 77.7729 13.4865C78.657 13.7879 79.3603 14.2199 79.8827 14.7825C80.4252 15.3451 80.807 16.0283 81.028 16.832C81.249 17.6357 81.3595 18.5298 81.3595 19.5144V28.8575C80.7165 28.9981 79.8224 29.1589 78.6771 29.3397C77.5318 29.5406 76.1454 29.6411 74.5179 29.6411C73.4932 29.6411 72.5589 29.5507 71.715 29.3698C70.8912 29.189 70.1779 28.8977 69.5751 28.4958C68.9723 28.0739 68.5102 27.5314 68.1887 26.8683C67.8672 26.2052 67.7065 25.3915 67.7065 24.427C67.7065 23.5028 67.8873 22.7192 68.249 22.0762C68.6308 21.4332 69.1331 20.9209 69.7559 20.5391C70.3788 20.1573 71.0921 19.8861 71.8958 19.7253C72.6995 19.5445 73.5334 19.4541 74.3974 19.4541C74.9801 19.4541 75.4924 19.4842 75.9345 19.5445C76.3966 19.5847 76.7683 19.645 77.0496 19.7253V19.3034C77.0496 18.5399 76.8185 17.927 76.3564 17.4649C75.8943 17.0028 75.0906 16.7717 73.9453 16.7717C73.1818 16.7717 72.4283 16.832 71.6849 16.9525C70.9414 17.053 70.2985 17.2037 69.7559 17.4046L69.1833 13.7879C69.4445 13.7076 69.766 13.6272 70.1478 13.5468C70.5496 13.4464 70.9816 13.366 71.4437 13.3057C71.9059 13.2253 72.3881 13.1651 72.8904 13.1249C73.4128 13.0646 73.9352 13.0345 74.4576 13.0345ZM84.9682 9.50818L89.4589 8.78484V13.4564H94.8538V17.1937H89.4589V22.7694C89.4589 23.7137 89.6197 24.4672 89.9411 25.0298C90.2827 25.5924 90.9558 25.8737 91.9605 25.8737C92.4427 25.8737 92.935 25.8335 93.4373 25.7532C93.9597 25.6527 94.4319 25.5221 94.8538 25.3613L95.4867 28.8575C94.9442 29.0785 94.3415 29.2694 93.6784 29.4301C93.0153 29.5909 92.2016 29.6712 91.2371 29.6712C90.0115 29.6712 88.9968 29.5105 88.1931 29.189C87.3894 28.8474 86.7464 28.3853 86.2642 27.8026C85.7819 27.1998 85.4404 26.4765 85.2394 25.6326C85.0586 24.7887 84.9682 23.8544 84.9682 22.8297V9.50818ZM98.2094 29.3096V6.64497L102.7 5.92163V13.5167C103.001 13.4162 103.383 13.3258 103.845 13.2454C104.328 13.145 104.79 13.0947 105.232 13.0947C106.518 13.0947 107.583 13.2756 108.427 13.6372C109.291 13.9788 109.974 14.4711 110.476 15.1141C110.998 15.757 111.36 16.5205 111.561 17.4046C111.782 18.2887 111.893 19.2732 111.893 20.3583V29.3096H107.402V20.9008C107.402 19.4541 107.211 18.4294 106.829 17.8266C106.467 17.2238 105.784 16.9224 104.78 16.9224C104.378 16.9224 103.996 16.9626 103.634 17.043C103.293 17.1032 102.981 17.1736 102.7 17.2539V29.3096H98.2094ZM122.528 5.92163C123.372 5.92163 124.065 5.99195 124.607 6.1326C125.17 6.27325 125.642 6.42395 126.024 6.58469L125.24 10.111C124.919 9.97031 124.557 9.86985 124.155 9.80957C123.773 9.74929 123.382 9.71915 122.98 9.71915C122.437 9.71915 121.975 9.79952 121.593 9.96027C121.232 10.1009 120.94 10.3018 120.719 10.563C120.518 10.8243 120.368 11.1357 120.267 11.4974C120.187 11.859 120.147 12.2508 120.147 12.6728V13.4564H125.692V17.1937H120.147V29.3096H115.656V12.6125C115.656 10.563 116.229 8.93554 117.374 7.72997C118.539 6.52441 120.257 5.92163 122.528 5.92163ZM132.775 29.3096H128.284V13.4564H132.775V29.3096ZM133.197 8.87526C133.197 9.69906 132.926 10.3521 132.383 10.8343C131.861 11.2964 131.238 11.5275 130.514 11.5275C129.791 11.5275 129.158 11.2964 128.616 10.8343C128.093 10.3521 127.832 9.69906 127.832 8.87526C127.832 8.05146 128.093 7.40849 128.616 6.94636C129.158 6.46413 129.791 6.22302 130.514 6.22302C131.238 6.22302 131.861 6.46413 132.383 6.94636C132.926 7.40849 133.197 8.05146 133.197 8.87526ZM136.693 13.9989C137.457 13.7779 138.441 13.577 139.647 13.3961C140.852 13.1952 142.118 13.0947 143.444 13.0947C144.791 13.0947 145.906 13.2756 146.79 13.6372C147.694 13.9788 148.407 14.4711 148.93 15.1141C149.452 15.757 149.824 16.5205 150.045 17.4046C150.266 18.2887 150.376 19.2732 150.376 20.3583V29.3096H145.886V20.9008C145.886 19.4541 145.695 18.4294 145.313 17.8266C144.931 17.2238 144.218 16.9224 143.173 16.9224C142.852 16.9224 142.51 16.9425 142.148 16.9827C141.787 17.0028 141.465 17.0329 141.184 17.0731V29.3096H136.693V13.9989ZM157.967 21.2624C157.967 22.6488 158.279 23.764 158.902 24.6079C159.525 25.4518 160.449 25.8737 161.675 25.8737C162.076 25.8737 162.448 25.8637 162.79 25.8436C163.131 25.8034 163.413 25.7632 163.634 25.723V17.5553C163.352 17.3745 162.981 17.2238 162.518 17.1032C162.076 16.9827 161.624 16.9224 161.162 16.9224C159.032 16.9224 157.967 18.3691 157.967 21.2624ZM168.124 28.7972C167.722 28.9178 167.26 29.0383 166.738 29.1589C166.216 29.2593 165.663 29.3498 165.08 29.4301C164.518 29.5105 163.935 29.5708 163.332 29.611C162.75 29.6712 162.187 29.7014 161.644 29.7014C160.338 29.7014 159.173 29.5105 158.148 29.1287C157.124 28.747 156.26 28.2045 155.556 27.5012C154.853 26.7779 154.311 25.9139 153.929 24.9093C153.567 23.8845 153.386 22.7392 153.386 21.4734C153.386 20.1875 153.547 19.0321 153.869 18.0074C154.19 16.9626 154.652 16.0785 155.255 15.3552C155.858 14.6318 156.591 14.0793 157.455 13.6975C158.339 13.3158 159.344 13.1249 160.469 13.1249C161.092 13.1249 161.644 13.1852 162.127 13.3057C162.629 13.4263 163.131 13.5971 163.634 13.8181V6.64497L168.124 5.92163V28.7972ZM171.274 21.5035C171.274 20.0971 171.485 18.8714 171.907 17.8266C172.349 16.7617 172.922 15.8776 173.625 15.1743C174.328 14.4711 175.132 13.9386 176.036 13.577C176.961 13.2153 177.905 13.0345 178.869 13.0345C181.12 13.0345 182.898 13.7277 184.204 15.1141C185.51 16.4804 186.163 18.4997 186.163 21.172C186.163 21.4332 186.153 21.7246 186.133 22.046C186.113 22.3474 186.093 22.6187 186.073 22.8598H175.886C175.986 23.7841 176.418 24.5175 177.182 25.06C177.945 25.6025 178.97 25.8737 180.256 25.8737C181.08 25.8737 181.883 25.8034 182.667 25.6627C183.471 25.502 184.124 25.3111 184.626 25.0901L185.229 28.7369C184.988 28.8575 184.666 28.978 184.264 29.0986C183.862 29.2192 183.41 29.3196 182.908 29.4C182.426 29.5005 181.903 29.5808 181.341 29.6411C180.778 29.7014 180.216 29.7315 179.653 29.7315C178.226 29.7315 176.981 29.5205 175.916 29.0986C174.871 28.6766 173.997 28.104 173.294 27.3807C172.61 26.6372 172.098 25.7632 171.757 24.7586C171.435 23.7539 171.274 22.6689 171.274 21.5035ZM181.823 19.7856C181.803 19.4039 181.733 19.0321 181.612 18.6705C181.512 18.3088 181.341 17.9873 181.1 17.706C180.879 17.4247 180.587 17.1937 180.226 17.0128C179.884 16.832 179.452 16.7416 178.93 16.7416C178.427 16.7416 177.995 16.832 177.634 17.0128C177.272 17.1736 176.971 17.3946 176.73 17.6759C176.488 17.9572 176.298 18.2887 176.157 18.6705C176.036 19.0321 175.946 19.4039 175.886 19.7856H181.823ZM198.881 17.4348C198.479 17.3343 198.007 17.2338 197.465 17.1334C196.922 17.0128 196.34 16.9525 195.717 16.9525C195.435 16.9525 195.094 16.9827 194.692 17.043C194.31 17.0831 194.019 17.1334 193.818 17.1937V29.3096H189.327V14.3003C190.131 14.019 191.075 13.7578 192.16 13.5167C193.265 13.2555 194.491 13.1249 195.837 13.1249C196.078 13.1249 196.37 13.145 196.711 13.1852C197.053 13.2052 197.394 13.2454 197.736 13.3057C198.078 13.3459 198.419 13.4062 198.761 13.4865C199.102 13.5468 199.394 13.6272 199.635 13.7277L198.881 17.4348Z" fill="#088F6A"/>
</svg>
